# AST/ASF file generated using VICON BodyLanguage
# -----------------------------------------------
:version 1.10
:name VICON
:units
  mass 1.0
  length 0.45
  angle deg
:documentation
   .ast/.asf automatically generated from VICON data using
   VICON BodyBuilder and BodyLanguage model FoxedUp or BRILLIANT.MOD
:root
   order TX TY TZ RX RY RZ
   axis XYZ
   position 0 0 0  
   orientation 0 0 0 
:bonedata
  begin
     id 1 
     name lhipjoint
     direction 0.661853 -0.702389 0.261917 
     length 2.64193 
     axis 0 0 0  XYZ
  end
  begin
     id 2 
     name lfemur
     direction 0.34202 -0.939693 0  
     length 7.01722  
     axis 0 0 20  XYZ
    dof rx ry rz
    limits (-160.0 20.0)
           (-70.0 70.0)
           (-60.0 70.0)
  end
  begin
     id 3 
     name ltibia
     direction 0.34202 -0.939693 0   
     length 8.25008   
     axis 0 0 20   XYZ
    dof rx
    limits (-10.0 170.0)
  end
  begin
     id 4 
     name lfoot
     direction 0.0709916 -0.195048 0.978221   
     length 2.31941   
     axis -90 7.62852e-016 20   XYZ
    dof rx rz
    limits (-45.0 90.0)
           (-70.0 20.0)
  end
  begin
     id 5 
     name ltoes
     direction 1.53586e-011 -4.22017e-011 1   
     length 1.16486   
     axis -90 7.62852e-016 20   XYZ
    dof rx
    limits (-90.0 20.0)
  end
  begin
     id 6 
     name rhipjoint
     direction -0.638185 -0.721362 0.268992   
     length 2.57244  
     axis 0 0 0  XYZ 
  end
  begin
     id 7 
     name rfemur
     direction -0.34202 -0.939693 0   
     length 7.07017   
     axis 0 0 -20   XYZ
    dof rx ry rz
    limits (-160.0 20.0)
           (-70.0 70.0)
           (-70.0 60.0)
  end
  begin
     id 8 
     name rtibia
     direction -0.34202 -0.939693 0   
     length 8.20386   
     axis 0 0 -20   XYZ
    dof rx
    limits (-10.0 170.0)
 end
 begin
     id 9 
     name rfoot
     direction -0.0822429 -0.225961 0.970658   
     length 2.32215  
     axis -90 -7.62852e-016 -20   XYZ
    dof rx rz
    limits (-45.0 90.0)
           (-20.0 70.0)
  end
  begin
     id 10 
     name rtoes
     direction -1.53597e-011 -4.21689e-011 1   
     length 1.16333   
     axis -90 -7.62852e-016 -20   XYZ
    dof rx
    limits (-90.0 20.0)
  end
  begin
     id 11 
     name lowerback
     direction -0.0131557 0.998589 -0.0514484   
     length 2.14993   
     axis 0 0 0   XYZ
    dof rx ry rz
    limits (-20.0 45.0)
           (-30.0 30.0)
           (-30.0 30.0)
  end
  begin
     id 12 
     name upperback
     direction -0.000776481 0.999993 0.00352685   
     length 2.15301   
     axis 0 0 0   XYZ
    dof rx ry rz
    limits (-20.0 45.0)
           (-30.0 30.0)
           (-30.0 30.0)
  end
  begin
     id 13 
     name thorax
     direction 0.00438186 0.999609 0.0276143   
     length 2.15424   
     axis 0 0 0   XYZ
    dof rx ry rz
    limits (-20.0 45.0)
           (-30.0 30.0)
           (-30.0 30.0)
  end
  begin
     id 14 
     name lowerneck
     direction -0.0488006 0.998094 0.0377807   
     length 1.90481   
     axis 0 0 0   XYZ
    dof rx ry rz
    limits (-20.0 45.0)
           (-30.0 30.0)
           (-30.0 30.0)
  end
  begin
     id 15 
     name upperneck
     direction 0.0443769 0.990702 -0.12861   
     length 1.91305   
     axis 0 0 0   XYZ
    dof rx ry rz
    limits (-20.0 45.0)
           (-30.0 30.0)
           (-30.0 30.0)
  end
  begin
     id 16
     name head
     direction 0.0165599 0.998647 -0.0492982  
     length 1.92369  
     axis 0 0 0   XYZ
    dof rx ry rz
    limits (-20.0 45.0)
           (-30.0 30.0)
           (-30.0 30.0)
  end
  begin
     id 17 
     name lclavicle
     direction 0.911936 0.410197 -0.0105506  
     length 3.52622  
     axis 0 0 0   XYZ
    dof ry rz
    limits (-20.0 10.0)
           (0.0 20.0)
  end
  begin
     id 18 
     name lhumerus
     direction 1 -4.48974e-011 -2.48591e-028   
     length 5.47651   
     axis 180 -30 -90   XYZ
    dof rx ry rz
    limits (-60.0 90.0)
           (-90.0 90.0)
           (-90.0 90.0)
  end
  begin
     id 19
     name lradius
     direction 1 -4.48938e-011 -4.40099e-027   
     length 3.09058   
     axis 180 -30 -90   XYZ
    dof rx
    limits (-10.0 170.0)
  end
  begin
     id 20
     name lwrist
     direction 1 -4.49042e-011 -2.99852e-027   
     length 1.54529   
     axis 1.95339e-015 90 90   XYZ
    dof ry
    limits (-180.0 0.0)
 end
  begin
     id 21 
     name lhand
     direction 1 -4.48815e-011 -5.98193e-027   
     length 0.771611   
     axis 3.82337e-015 90 90   XYZ
    dof rx rz
    limits (-90.0 90.0)
           (-45.0 45.0)
  end
  begin
     id 22 
     name lfingers
     direction 1 -4.49034e-011 -1.1993e-026   
     length 0.622093   
     axis 7.64668e-015 90 90   XYZ
    dof rx
    limits (0.0 90.0)
  end
  begin
     id 23
     name lthumb
     direction 0.707107 -6.34867e-011 0.707107   
     length 0.893204   
     axis -90 45 -1.62303e-014   XYZ
    dof rx rz
    limits (-45.0 45.0)
           (-45.0 45.0)
  end
  begin
     id 24 
     name rclavicle
     direction -0.93442 0.355634 -0.0195692   
     length 3.62463  
     axis 0 0 0   XYZ 
    dof ry rz
    limits (-10.0 20.0)
           (-20.0 0.0)
  end
  begin
     id 25 
     name rhumerus
     direction -1 -4.48957e-011 -1.19147e-027  
     length 5.14182   
     axis 180 30 90   XYZ
    dof rx ry rz
    limits (-90.0 60.0)
           (-90.0 90.0)
           (-90.0 90.0)
  end
  begin
     id 26 
     name rradius
     direction -1 -4.48952e-011 -3.81062e-027   
     length 3.35565   
     axis 180 30 90   XYZ
    dof rx
    limits (-10.0 170.0)
  end
  begin
     id 27 
     name rwrist
     direction -1 -4.48973e-011 -2.99621e-027   
     length 1.67782   
     axis 1.95339e-015 -90 -90   XYZ
    dof ry
    limits (-180.0 0.0)
  end
  begin
     id 28
     name rhand
     direction -1 -4.48895e-011 -5.98727e-027   
     length 0.801042   
     axis 3.82337e-015 -90 -90   XYZ
    dof rx rz
    limits (-90.0 90.0)
           (-45.0 45.0)
  end
  begin
     id 29
     name rfingers
     direction -1 -4.49065e-011 -1.19972e-026   
     length 0.645821   
     axis 7.64668e-015 -90 -90   XYZ
    dof rx
    limits (0.0 90.0)
  end
  begin
     id 30
     name rthumb
     direction -0.707107 -6.34957e-011 0.707107   
     length 0.927273   
     axis -90 -45 1.62303e-014   XYZ
    dof rx rz
    limits (-45.0 45.0)
           (-45.0 45.0)
  end
:hierarchy
  begin
    root lhipjoint rhipjoint lowerback
    lhipjoint lfemur
    lfemur ltibia
    ltibia lfoot
    lfoot ltoes
    rhipjoint rfemur
    rfemur rtibia
    rtibia rfoot
    rfoot rtoes
    lowerback upperback
    upperback thorax
    thorax lowerneck lclavicle rclavicle
    lowerneck upperneck
    upperneck head
    lclavicle lhumerus
    lhumerus lradius
    lradius lwrist
    lwrist lhand lthumb
    lhand lfingers
    rclavicle rhumerus
    rhumerus rradius
    rradius rwrist
    rwrist rhand rthumb
    rhand rfingers
  end

#!OML:ASF E:\Style4\Style4.ASF
:FULLY-SPECIFIED
:DEGREES
599
root 1.02546 17.2931 -2.62433 -0.872528 -26.5171 5.85192
lowerback 15.3049 -3.02498 0.630146
upperback 8.42598 -3.99645 3.03145
thorax 0.550926 -2.11406 3.39408
lowerneck 2.74715 0.0744396 -4.54068
upperneck 3.10838 0.0174556 -2.57752
head 0.49494 -0.0592141 -0.0446334
rclavicle 1.35174e-014 2.8625e-014
rhumerus -15.9287 37.86 -81.5231
rradius 80.1528
rwrist -33.6214
rhand -13.3967 19.5012
rfingers 7.12502
rthumb 12.7107 -10.092
lclavicle 1.35174e-014 2.8625e-014
lhumerus 11.3365 -56.3688 76.4449
lradius 81.5484
lwrist 65.7963
lhand -18.2128 32.5168
lfingers 7.12502
lthumb 8.06497 62.3429
rfemur -29.9946 15.3369 8.18573
rtibia 43.2983
rfoot -17.0448 -2.11487
rtoes -18.7571
lfemur -18.3197 18.0019 -29.1584
ltibia 40.8615
lfoot -27.968 14.8357
ltoes -5.04937
600
root 1.02843 17.2745 -2.62221 -0.783915 -26.7329 5.68949
lowerback 15.388 -3.11241 0.536491
upperback 8.49632 -4.12693 2.83073
thorax 0.579687 -2.17914 3.25682
lowerneck 2.79198 0.145449 -4.62382
upperneck 3.06406 0.105528 -2.61152
head 0.473495 -0.0150657 -0.0419457
rclavicle 7.55382e-014 7.95139e-015
rhumerus -18.3724 37.863 -81.7945
rradius 82.1357
rwrist -33.7367
rhand -13.4381 19.0352
rfingers 7.12502
rthumb 12.6709 -10.5604
lclavicle 7.55382e-014 7.95139e-015
lhumerus 10.4958 -57.7792 77.1308
lradius 82.2895
lwrist 66.3274
lhand -18.8166 32.6069
lfingers 7.12502
lthumb 7.48215 62.4546
rfemur -30.2657 15.4159 8.33444
rtibia 43.6028
rfoot -17.0894 -1.96563
rtoes -18.4654
lfemur -18.6227 18.1794 -29.0089
ltibia 41.3725
lfoot -28.1478 14.8085
ltoes -5.25994
601
root 1.0349 17.2553 -2.61979 -0.762569 -26.8187 5.58297
lowerback 15.5054 -3.21456 0.498132
upperback 8.59039 -4.26943 2.59818
thorax 0.609275 -2.24751 3.0586
lowerneck 2.71848 0.204934 -4.65005
upperneck 3.09388 0.19027 -2.67656
head 0.493781 0.0250781 -0.0576192
rclavicle 3.73715e-014 3.18055e-015
rhumerus -20.7009 37.6579 -82.0347
rradius 83.994
rwrist -33.7774
rhand -13.5992 18.898
rfingers 7.12502
rthumb 12.5155 -10.7072
lclavicle 3.73715e-014 3.18055e-015
lhumerus 9.78544 -59.2204 77.8434
lradius 82.9329
lwrist 66.6674
lhand -19.3479 32.5751
lfingers 7.12502
lthumb 6.96934 62.4403
rfemur -30.4468 15.3104 8.43783
rtibia 43.8849
rfoot -17.1753 -1.83935
rtoes -18.4673
lfemur -18.8941 18.278 -28.9362
ltibia 41.8789
lfoot -28.3341 14.8858
ltoes -5.74198
602
root 1.02608 17.2401 -2.61465 -0.37874 -26.602 5.42674
lowerback 15.0905 -3.37908 0.402164
upperback 8.61841 -4.50743 2.42767
thorax 0.860707 -2.36626 2.93703
lowerneck 2.75803 0.266436 -4.6022
upperneck 3.02758 0.270178 -2.8252
head 0.466647 0.0667228 -0.110831
rclavicle -7.67309e-014 3.97569e-014
rhumerus -23.0578 37.3694 -82.2669
rradius 85.8511
rwrist -33.9887
rhand -13.4644 18.9424
rfingers 7.12502
rthumb 12.6455 -10.6548
lclavicle -7.67309e-014 3.97569e-014
lhumerus 9.31238 -60.8334 78.2851
lradius 83.5871
lwrist 66.8025
lhand -19.4835 32.5247
lfingers 7.12502
lthumb 6.83842 62.3943
rfemur -30.8375 15.1444 8.54189
rtibia 44.1463
rfoot -17.3016 -2.00785
rtoes -18.4177
lfemur -19.4698 18.1603 -28.8656
ltibia 42.3448
lfoot -28.393 14.8642
ltoes -6.27008
603
root 1.02048 17.2264 -2.61537 -0.289138 -26.5675 5.20926
lowerback 15.1743 -3.48427 0.288945
upperback 8.65088 -4.65976 2.30562
thorax 0.856957 -2.44403 2.8977
lowerneck 2.80421 0.334202 -4.72521
upperneck 3.00748 0.354528 -2.96144
head 0.452604 0.107427 -0.132769
rclavicle 8.90555e-014 -8.74653e-015
rhumerus -25.5264 37.1316 -82.4405
rradius 87.8479
rwrist -34.3345
rhand -13.1215 18.6985
rfingers 7.12502
rthumb 12.9761 -10.8779
lclavicle 8.90555e-014 -8.74653e-015
lhumerus 8.80015 -62.4652 78.7565
lradius 84.3801
lwrist 67.0735
lhand -19.6805 32.306
lfingers 7.12502
lthumb 6.64829 62.1816
rfemur -30.9295 15.1315 8.79156
rtibia 44.3625
rfoot -17.4175 -2.06566
rtoes -18.3402
lfemur -19.679 18.197 -28.6262
ltibia 42.759
lfoot -28.6954 14.7079
ltoes -6.02708
604
root 1.01421 17.2159 -2.61865 -0.431493 -26.6598 5.01999
lowerback 15.5253 -3.52187 0.108701
upperback 8.72863 -4.73051 2.15702
thorax 0.760678 -2.48359 2.87445
lowerneck 2.87734 0.416256 -4.87004
upperneck 2.90879 0.451606 -3.03258
head 0.410131 0.157239 -0.131794
rclavicle 2.38542e-014 -8.74653e-015
rhumerus -27.9429 36.7773 -82.6046
rradius 89.809
rwrist -34.7164
rhand -12.715 18.3919
rfingers 7.12502
rthumb 13.3679 -11.1592
lclavicle 2.38542e-014 -8.74653e-015
lhumerus 8.17729 -63.9592 79.3905
lradius 85.1931
lwrist 67.3907
lhand -20.0421 32.0534
lfingers 7.12502
lthumb 6.29916 61.9398
rfemur -30.8029 15.209 9.07488
rtibia 44.5353
rfoot -17.5256 -1.99162
rtoes -18.0853
lfemur -19.606 18.3822 -28.3333
ltibia 43.092
lfoot -28.9309 14.5633
ltoes -5.93991
605
root 1.00596 17.2071 -2.61805 -0.421743 -26.5993 4.90826
lowerback 15.5428 -3.57683 -0.0428268
upperback 8.79348 -4.82533 1.95122
thorax 0.818544 -2.53232 2.7553
lowerneck 2.993 0.486053 -4.86591
upperneck 2.76233 0.531999 -3.13371
head 0.34679 0.202266 -0.164012
rclavicle -1.51076e-014 1.43125e-014
rhumerus -30.2653 36.2561 -82.7536
rradius 91.7053
rwrist -35.1532
rhand -12.384 18.2025
rfingers 7.12502
rthumb 13.687 -11.3274
lclavicle -1.51076e-014 1.43125e-014
lhumerus 7.92065 -65.4644 79.7239
lradius 85.9841
lwrist 67.6051
lhand -20.381 31.8487
lfingers 7.12502
lthumb 5.97194 61.7445
rfemur -30.7893 15.1305 9.23352
rtibia 44.66
rfoot -17.5884 -1.92868
rtoes -17.5446
lfemur -19.679 18.39 -28.1747
ltibia 43.3354
lfoot -29.0012 14.4724
ltoes -5.93372
606
root 0.995254 17.2022 -2.61598 -0.299559 -26.4023 4.76027
lowerback 15.4472 -3.68294 -0.214517
upperback 8.81483 -4.98828 1.81026
thorax 0.900502 -2.6169 2.71793
lowerneck 3.08333 0.554137 -4.91908
upperneck 2.63126 0.610534 -3.2809
head 0.29252 0.245045 -0.200905
rclavicle -3.85642e-014 -3.65764e-014
rhumerus -32.5247 35.8957 -82.7909
rradius 93.6297
rwrist -35.7351
rhand -12.228 18.077
rfingers 7.12502
rthumb 13.8373 -11.4428
lclavicle -3.85642e-014 -3.65764e-014
lhumerus 7.63581 -66.8458 80.1845
lradius 86.7931
lwrist 67.5921
lhand -20.5006 31.5547
lfingers 7.12502
lthumb 5.8565 61.4537
rfemur -30.8214 14.9954 9.41455
rtibia 44.7599
rfoot -17.5794 -1.99894
rtoes -17.2522
lfemur -19.822 18.2587 -28.0023
ltibia 43.5433
lfoot -29.0795 14.2912
ltoes -5.5675
607
root 0.984269 17.1986 -2.6167 -0.551991 -26.3476 4.68369
lowerback 15.8174 -3.73348 -0.610315
upperback 8.87062 -5.10535 1.71423
thorax 0.798681 -2.68873 2.87943
lowerneck 3.12789 0.673702 -5.07559
upperneck 2.52661 0.758037 -3.48641
head 0.253283 0.319951 -0.239236
rclavicle 2.22639e-014 -2.70347e-014
rhumerus -34.7274 35.7382 -82.6891
rradius 95.6297
rwrist -36.4103
rhand -12.1878 17.7901
rfingers 7.12502
rthumb 13.876 -11.727
lclavicle 2.22639e-014 -2.70347e-014
lhumerus 7.27117 -67.9881 80.7973
lradius 87.6721
lwrist 67.4674
lhand -20.6121 31.2474
lfingers 7.12502
lthumb 5.74883 61.1494
rfemur -30.5047 15.0246 9.61893
rtibia 44.8273
rfoot -17.6684 -2.14133
rtoes -17.4865
lfemur -19.5527 18.3151 -27.7816
ltibia 43.7045
lfoot -29.1275 14.1918
ltoes -5.57899
608
root 0.984804 17.1921 -2.61914 -0.397909 -26.1258 4.52024
lowerback 15.8067 -3.84708 -0.750431
upperback 8.82281 -5.27038 1.61855
thorax 0.765496 -2.77211 2.88187
lowerneck 3.22945 0.7854 -5.22386
upperneck 2.38945 0.888684 -3.6202
head 0.19503 0.388699 -0.25753
rclavicle 2.18663e-014 -2.06736e-014
rhumerus -36.8892 35.5958 -82.5748
rradius 97.6667
rwrist -37.2508
rhand -12.116 17.5931
rfingers 7.12502
rthumb 13.9452 -11.9192
lclavicle 2.18663e-014 -2.06736e-014
lhumerus 7.2289 -69.1515 81.1011
lradius 88.6271
lwrist 67.3788
lhand -20.8551 30.9387
lfingers 7.12502
lthumb 5.51423 60.847
rfemur -30.5921 14.7436 9.7713
rtibia 44.874
rfoot -17.7116 -2.20939
rtoes -17.9475
lfemur -19.7808 18.0544 -27.6701
ltibia 43.8825
lfoot -29.1898 14.1414
ltoes -5.08359
609
root 0.976704 17.1901 -2.6212 -0.330702 -25.8 4.324
lowerback 15.8338 -3.96755 -0.871762
upperback 8.83601 -5.44379 1.48944
thorax 0.773365 -2.85958 2.84014
lowerneck 3.24411 0.867603 -5.23759
upperneck 2.24974 0.990673 -3.73846
head 0.150514 0.443989 -0.292071
rclavicle 4.21423e-014 -1.19271e-014
rhumerus -38.8699 35.4328 -82.5085
rradius 99.6367
rwrist -38.0162
rhand -11.8724 17.4915
rfingers 7.12502
rthumb 14.18 -12.0045
lclavicle 4.21423e-014 -1.19271e-014
lhumerus 7.55565 -70.2257 81.0081
lradius 89.5834
lwrist 67.2312
lhand -20.7448 30.7563
lfingers 7.12502
lthumb 5.62074 60.6618
rfemur -30.4578 14.4854 10.0133
rtibia 44.8781
rfoot -17.7526 -2.26627
rtoes -17.6435
lfemur -19.8355 17.7782 -27.4429
ltibia 44.0224
lfoot -29.1968 14.1045
ltoes -5.03638
